<svg width="27" height="31" viewBox="0 0 27 31" fill="none" xmlns="http://www.w3.org/2000/svg">
<g clip-path="url(#clip0_15_286)">
<path d="M13.501 17.5979C15.6443 17.5979 17.3817 15.7228 17.3817 13.4097C17.3817 11.0967 15.6443 9.22156 13.501 9.22156C11.3578 9.22156 9.62036 11.0967 9.62036 13.4097C9.62036 15.7228 11.3578 17.5979 13.501 17.5979Z" fill="white"/>
<path d="M17.8296 19.522H9.16846V20.7015H17.8296V19.522Z" fill="white"/>
<path d="M26.307 16.8571L22.0357 14.3784C21.6222 12.082 21.0402 9.97751 20.2859 8.08762C17.8354 1.93738 14.2802 0 13.4933 0C12.5839 0 9.15124 1.99436 6.71793 8.09901C5.9598 9.97561 5.37588 12.0744 4.96235 14.3784L0.69113 16.859C0.264199 17.1078 0 17.5675 0 18.0575V26.1983C0 26.9657 0.627952 27.5887 1.4014 27.5887H2.82578H3.20868C3.83663 27.5887 4.39183 27.1689 4.55839 26.5706L5.26484 24.0463H7.73261V25.2106C7.73261 25.9571 8.34525 26.5649 9.09572 26.5649H11.3108C10.6962 30.2402 13.501 31 13.501 31C15.8807 30.358 15.829 27.7501 15.6739 26.5649H17.9062C18.6586 26.5649 19.2693 25.9571 19.2693 25.2106V24.0463H21.7371L22.4435 26.5687C22.6101 27.1689 23.1653 27.5887 23.7932 27.5887H25.6005C26.374 27.5887 27.0019 26.9657 27.0019 26.1983V18.0575C27.0019 17.5675 26.7358 17.1078 26.3089 16.8571H26.307ZM4.22144 23.3568L3.41161 26.2553C3.38673 26.3446 3.3044 26.4073 3.20868 26.4073H1.4014C1.28462 26.4073 1.1889 26.3123 1.1889 26.1964V18.0556C1.1889 17.9816 1.2291 17.9113 1.29228 17.8733L4.71921 15.8846C4.39183 18.1886 4.22527 20.6825 4.22144 23.3549V23.3568ZM18.0804 25.2106C18.0804 25.3056 18.0019 25.3854 17.9062 25.3854H9.09572C9 25.3854 8.92151 25.3075 8.92151 25.2106V24.052H18.0804V25.2106ZM5.41225 22.8668C5.46586 17.1857 6.27569 12.3651 7.82259 8.53397C10.0568 2.92507 13.0357 1.27449 13.4876 1.18142C13.9451 1.26879 16.9336 2.88328 19.1812 8.52068C20.7281 12.4011 21.538 17.2256 21.5916 22.8649H5.41225V22.8668ZM25.8111 26.1983C25.8111 26.3142 25.7154 26.4092 25.5986 26.4092H23.7913C23.6956 26.4092 23.6133 26.3465 23.5884 26.2553L22.7824 23.372C22.7786 20.7015 22.6101 18.2038 22.2808 15.8884L25.7058 17.8771C25.769 17.9151 25.8111 17.9854 25.8111 18.0594V26.2002V26.1983Z" fill="white"/>
</g>
<defs>
<clipPath id="clip0_15_286">
<rect width="27" height="31" fill="white"/>
</clipPath>
</defs>
</svg>
