<svg width="38" height="38" viewBox="0 0 38 38" fill="none" xmlns="http://www.w3.org/2000/svg">
<g clip-path="url(#clip0_23_1172)">
<path d="M19.0678 0.886047C8.98028 0.886047 0.771973 9.09256 0.771973 19.1819C0.771973 29.2712 8.98028 37.4778 19.0678 37.4778C29.1554 37.4778 37.3637 29.2712 37.3637 19.1819C37.3637 9.09256 29.1554 0.886047 19.0678 0.886047ZM19.0678 35.6914C9.96456 35.6914 2.55833 28.2852 2.55833 19.1819C2.55833 10.0786 9.96456 2.6724 19.0678 2.6724C28.1711 2.6724 35.5773 10.0786 35.5773 19.1819C35.5773 28.2852 28.1711 35.6914 19.0678 35.6914Z" fill="#231F20"/>
<path d="M20.013 9.23724H18.123V19.1837C18.123 19.4338 18.2231 19.6749 18.3999 19.8518L25.8562 27.3098L27.1924 25.9736L20.013 18.7925V9.23724Z" fill="#231F20"/>
</g>
<defs>
<clipPath id="clip0_23_1172">
<rect width="36.5917" height="36.5917" fill="white" transform="translate(0.771973 0.886047)"/>
</clipPath>
</defs>
</svg>
