<svg width="55" height="43" viewBox="0 0 55 43" fill="none" xmlns="http://www.w3.org/2000/svg">
<g clip-path="url(#clip0_23_1185)">
<path d="M43.142 12.0218H11.4199V15.5309H43.142V12.0218Z" fill="#231F20"/>
<path d="M43.142 23.3311H11.4199V26.8401H43.142V23.3311Z" fill="#231F20"/>
<path d="M49.8529 0.705688H4.70232C2.17812 0.705688 0.128906 2.75945 0.128906 5.28924V37.4285C0.128906 39.0403 0.949949 40.5024 2.31383 41.3388C3.03309 41.7809 3.86092 42.0189 4.70232 42.0189H5.04159V42.0053C5.65228 41.9577 6.23583 41.7945 6.79224 41.5089L13.0824 38.2718C13.2317 38.197 13.4081 38.1494 13.5709 38.1494H49.8529C52.3771 38.1494 54.4263 36.0956 54.4263 33.5658V5.28924C54.4263 2.75945 52.3771 0.705688 49.8529 0.705688ZM50.925 5.28924V33.5726C50.925 34.1643 50.4432 34.6471 49.8529 34.6471H13.5709C12.8517 34.6471 12.1324 34.8239 11.481 35.1504L5.18408 38.3874C4.72946 38.6254 4.3359 38.4622 4.13912 38.3466C3.94913 38.2242 3.62343 37.9522 3.62343 37.4285V5.28244C3.62343 4.718 4.06448 4.24876 4.62089 4.21476H49.8461C50.4364 4.21476 50.9182 4.6976 50.9182 5.28924H50.925Z" fill="#231F20"/>
</g>
<defs>
<clipPath id="clip0_23_1185">
<rect width="54.2974" height="41.3132" fill="white" transform="translate(0.128906 0.705688)"/>
</clipPath>
</defs>
</svg>
