<svg width="43" height="38" viewBox="0 0 43 38" fill="none" xmlns="http://www.w3.org/2000/svg">
<path d="M34.2338 19.3912H8.61865V20.9722H34.2338V19.3912Z" fill="#231F20"/>
<path d="M27.9571 8.71429H14.8979V10.2953H27.9571V8.71429Z" fill="#231F20"/>
<path d="M34.2338 14.0527H8.61865V15.6337H34.2338V14.0527Z" fill="#231F20"/>
<path d="M40.2613 0.87323H2.59336C1.58958 0.87323 0.771973 1.70737 0.771973 2.73143V30.4864C0.771973 31.5105 1.58958 32.3446 2.59336 32.3446H15.4085C15.9267 35.2577 18.4248 37.4649 21.4286 37.4649C24.4324 37.4649 26.9305 35.2551 27.4487 32.3446H40.2638C41.2676 32.3446 42.0852 31.5105 42.0852 30.4864V2.73143C42.0852 1.70737 41.2676 0.87323 40.2638 0.87323H40.2613ZM21.4261 34.2516C19.7883 34.2516 18.455 32.8913 18.455 31.2204C18.455 29.5496 19.7883 28.1893 21.4261 28.1893C23.0638 28.1893 24.3971 29.5496 24.3971 31.2204C24.3971 32.8913 23.0638 34.2516 21.4261 34.2516ZM40.533 30.4864C40.533 30.6378 40.4122 30.7636 40.2613 30.7636H27.5292C27.3003 27.5297 24.6563 24.976 21.4261 24.976C18.1959 24.976 15.5518 27.5297 15.3229 30.7636H2.59084C2.44241 30.7636 2.31914 30.6404 2.31914 30.4864V2.73143C2.31914 2.58 2.4399 2.45424 2.59084 2.45424H40.2588C40.4072 2.45424 40.5305 2.57744 40.5305 2.73143V30.4864H40.533Z" fill="#231F20"/>
</svg>
