<svg width="317" height="317" viewBox="0 0 317 317" fill="none" xmlns="http://www.w3.org/2000/svg">
<g clip-path="url(#clip0_21_313)">
<path d="M269.978 140.959C310.449 76.714 316.683 15.533 317 11.5176C317.317 8.34763 316.155 5.2833 313.936 3.0643C311.717 0.845298 308.652 -0.317035 305.482 -3.50699e-05C301.467 0.316965 240.286 6.5513 176.041 47.0216L119.509 43.429C104.399 42.478 89.4996 48.0783 78.8273 58.8563L28.7413 108.942C25.7826 111.901 24.8316 116.233 26.311 120.143C27.7903 124.053 31.383 126.694 35.504 127.011L88.443 130.815C83.1596 138.423 78.0876 146.56 73.227 155.013C70.9023 159.134 71.642 164.312 74.9176 167.693L82.9483 175.724L68.472 190.2L67.838 189.566C63.717 185.445 57.06 185.445 52.939 189.566C48.818 193.687 48.818 200.344 52.939 204.465L57.5883 209.114C6.12863 245.252 0.316965 302.841 -3.50699e-05 305.482C-0.317035 308.652 0.845298 311.717 3.0643 313.936C5.07196 315.943 7.71363 317 10.5666 317C10.8836 317 11.2006 317 11.5176 317C14.1593 316.789 71.7476 310.871 107.991 259.517L116.339 267.865C118.452 269.978 121.094 270.929 123.841 270.929C126.589 270.929 129.23 269.873 131.344 267.865C135.465 263.744 135.465 257.087 131.344 252.966L130.71 252.332L145.186 237.856L149.518 242.188C151.526 244.196 154.273 245.252 157.021 245.252C158.817 245.252 160.613 244.83 162.198 243.879C170.757 239.124 178.788 234.052 186.396 228.768L190.2 281.707C190.517 285.828 193.159 289.421 197.068 290.9C198.231 291.323 199.499 291.534 200.767 291.534C203.514 291.534 206.261 290.478 208.269 288.47L258.355 238.384C269.133 227.606 274.733 212.813 273.677 197.702L270.084 141.171L269.978 140.959ZM193.476 196.434L120.46 123.419C155.541 81.469 197.597 56.5316 232.995 41.7383L275.05 83.7936C260.257 119.192 235.32 161.353 193.37 196.329L193.476 196.434ZM283.398 62.2376L254.868 33.7076C270.929 28.3186 284.455 25.1486 293.859 23.3523C292.063 32.651 288.893 46.282 283.504 62.3433L283.398 62.2376ZM60.0186 107.569L93.7263 73.861C100.172 67.4153 108.942 64.034 118.135 64.668L148.567 66.57C133.034 78.933 117.818 93.515 103.553 110.739L59.913 107.674L60.0186 107.569ZM24.092 292.908C29.0583 275.05 41.9496 244.935 72.91 224.436L92.564 244.09C72.1703 275.05 41.9496 287.942 24.092 292.908ZM115.599 237.222L83.4766 205.099L97.953 190.623L130.076 222.745L115.599 237.222ZM158.606 221.372L95.734 158.5C99.538 152.16 103.448 146.137 107.569 140.431L176.675 209.537C170.969 213.658 164.946 217.568 158.606 221.372ZM243.245 223.274L209.537 256.981L206.473 213.341C223.696 199.182 238.278 183.86 250.641 168.327L252.543 198.759C253.072 207.846 249.796 216.722 243.35 223.168L243.245 223.274Z" fill="#1962EC"/>
<path d="M228.029 141.276C235.003 134.302 238.807 125.004 238.807 115.177C238.807 105.35 235.003 96.051 228.029 89.077C214.081 75.129 189.672 75.129 175.724 89.077C168.75 96.051 164.946 105.35 164.946 115.177C164.946 125.004 168.75 134.302 175.724 141.276C182.698 148.25 191.996 152.16 201.929 152.16C211.862 152.16 221.055 148.356 228.029 141.276ZM213.024 126.377C207.001 132.4 196.646 132.4 190.623 126.377C187.664 123.419 185.973 119.403 185.973 115.177C185.973 110.95 187.664 106.935 190.623 103.976C193.581 101.017 197.597 99.3266 201.823 99.3266C206.05 99.3266 210.065 101.017 213.024 103.976C215.983 106.935 217.673 110.95 217.673 115.177C217.673 119.403 215.983 123.419 213.024 126.377Z" fill="#181935"/>
</g>
<defs>
<clipPath id="clip0_21_313">
<rect width="317" height="317" fill="white"/>
</clipPath>
</defs>
</svg>
