<svg width="340" height="340" viewBox="0 0 340 340" fill="none" xmlns="http://www.w3.org/2000/svg">
<g clip-path="url(#clip0_21_317)">
<path d="M328.667 158.667H305.433C299.993 92.7067 247.293 40.0067 181.333 34.5667V11.3333C181.333 5.1 176.233 0 170 0C163.767 0 158.667 5.1 158.667 11.3333V34.5667C92.7067 40.0067 40.0067 92.7067 34.5667 158.667H11.3333C5.1 158.667 0 163.767 0 170C0 176.233 5.1 181.333 11.3333 181.333H34.5667C40.0067 247.293 92.7067 299.993 158.667 305.433V328.667C158.667 334.9 163.767 340 170 340C176.233 340 181.333 334.9 181.333 328.667V305.433C247.293 299.993 299.993 247.293 305.433 181.333H328.667C334.9 181.333 340 176.233 340 170C340 163.767 334.9 158.667 328.667 158.667ZM282.767 158.667H259.873C254.773 117.753 222.247 85.2267 181.333 80.1267V57.2333C234.827 62.56 277.44 105.173 282.767 158.667ZM170 238C132.487 238 102 207.513 102 170C102 132.487 132.487 102 170 102C207.513 102 238 132.487 238 170C238 207.513 207.513 238 170 238ZM158.667 57.2333V80.1267C117.753 85.2267 85.2267 117.753 80.1267 158.667H57.2333C62.56 105.173 105.173 62.56 158.667 57.2333ZM57.2333 181.333H80.1267C85.2267 222.247 117.753 254.773 158.667 259.873V282.767C105.173 277.44 62.56 234.827 57.2333 181.333ZM181.333 282.767V259.873C222.247 254.773 254.773 222.247 259.873 181.333H282.767C277.44 234.827 234.827 277.44 181.333 282.767Z" fill="#1962EC"/>
<path d="M170 119C141.893 119 119 141.893 119 170C119 198.107 141.893 221 170 221C198.107 221 221 198.107 221 170C221 141.893 198.107 119 170 119ZM170 198.333C154.36 198.333 141.667 185.64 141.667 170C141.667 154.36 154.36 141.667 170 141.667C185.64 141.667 198.333 154.36 198.333 170C198.333 185.64 185.64 198.333 170 198.333Z" fill="#181935"/>
</g>
<defs>
<clipPath id="clip0_21_317">
<rect width="340" height="340" fill="white"/>
</clipPath>
</defs>
</svg>
