<svg width="118" height="29" viewBox="0 0 118 29" fill="none" xmlns="http://www.w3.org/2000/svg">
<path d="M7.20037 6.33048H1.72929V11.8015H7.20037V6.33048Z" fill="white"/>
<path d="M34.4947 17.2573H29.0465V22.7054H34.4947V17.2573Z" fill="white"/>
<path d="M35.0822 7.33008L32.3581 2.61447L29.0465 4.51445V0.882355H7.20036V6.3305H25.8875L0.668648 20.8894L3.41563 25.6279L7.20036 23.4456V28.1765H29.0465V22.7054H8.4365L35.0822 7.33008Z" fill="white"/>
<path d="M56.9284 11.5879V9.32163H46.5432V11.977H53.1207L46.5432 20.63V22.9267H57.1039V20.2637H50.3966L56.9284 11.5879Z" fill="white"/>
<path d="M67.1151 19.5693C66.703 19.9127 66.2528 20.1721 65.7492 20.3705C65.2532 20.5689 64.7115 20.6528 64.1239 20.6528C63.7348 20.6528 63.3914 20.5842 63.1091 20.4544C62.8038 20.3018 62.5673 20.1111 62.3918 19.8669C62.2392 19.6075 62.1553 19.3251 62.1553 18.9818C62.1553 18.6537 62.201 18.379 62.3308 18.1348C62.4376 17.8982 62.636 17.6999 62.8954 17.532C63.1549 17.3565 63.4601 17.2268 63.8263 17.1428C64.1926 17.0589 64.6046 17.0131 65.0625 17.0131H67.634V19.0276C67.4585 19.2259 67.3058 19.3938 67.1151 19.5693ZM68.107 9.55816C67.3058 9.21479 66.3749 9.03929 65.2914 9.03929C64.2079 9.03929 63.1091 9.27584 62.1095 9.71077C61.1328 10.1686 60.2476 10.8172 59.4312 11.6794L61.3998 13.6481C61.8958 13.0224 62.4376 12.5646 63.0251 12.2822C63.6127 11.9999 64.2613 11.8473 64.9938 11.8473C65.7721 11.8473 66.3978 12.061 66.8938 12.4959C67.3669 12.9079 67.6263 13.4878 67.6263 14.228V14.7469H65.2456C64.2536 14.7469 63.3609 14.8308 62.5826 15.0063C61.8271 15.2047 61.2014 15.4641 60.6826 15.8304C60.1866 16.1967 59.7974 16.6545 59.538 17.1962C59.2786 17.738 59.1488 18.3637 59.1488 19.081C59.1488 19.9279 59.3472 20.6376 59.7516 21.2404C60.1561 21.8432 60.7055 22.3239 61.3922 22.6673C62.0866 23.0106 62.8649 23.1861 63.75 23.1861C64.3986 23.1861 65.0243 23.0564 65.6348 22.797C66.2376 22.5376 66.8251 22.1942 67.344 21.7364C67.4508 21.6524 67.5195 21.5609 67.6263 21.4769V22.9267H70.5717V13.5794C70.5717 12.6027 70.358 11.7863 69.9231 11.0919C69.4882 10.4204 68.8854 9.90153 68.107 9.55816Z" fill="white"/>
<path d="M77.2179 10.6188H74.0588V22.9267H77.2179V10.6188Z" fill="white"/>
<path d="M75.6155 5.85739C74.9898 5.85739 74.4938 6.03289 74.1428 6.37626C73.7765 6.70437 73.5781 7.15457 73.5781 7.69633C73.5781 8.28387 73.7765 8.73407 74.1199 9.06218C74.4632 9.39029 74.9669 9.53527 75.6155 9.53527C76.2183 9.53527 76.7219 9.35977 77.0881 9.0164C77.4315 8.67303 77.6299 8.23809 77.6299 7.69633C77.6299 7.10879 77.4315 6.65859 77.0881 6.35337C76.7448 6.02526 76.2412 5.85739 75.6155 5.85739Z" fill="white"/>
<path d="M85.3672 5.85739H82.2311V9.32162H79.5528V12.2593H82.2311V22.9267H85.3672V12.2593H88.3584V9.32162H85.3672V5.85739Z" fill="white"/>
<path d="M94.4094 12.3051C94.9969 11.977 95.7066 11.832 96.5536 11.832C97.0953 11.832 97.5913 11.9389 98.0491 12.1754C98.507 12.412 98.8961 12.7401 99.1708 13.1292C99.476 13.5413 99.6439 13.9915 99.6897 14.5103V14.6629H92.7688C92.8375 14.3196 92.9443 13.9915 93.074 13.7091C93.3793 13.1063 93.8066 12.6256 94.417 12.3051H94.4094ZM101.033 10.9393C100.468 10.3365 99.7965 9.87864 99.0411 9.53527C98.2628 9.1919 97.4387 9.0164 96.5078 9.0164C95.5158 9.0164 94.5849 9.1919 93.7379 9.53527C92.8909 9.90154 92.1584 10.3975 91.5327 11.0461C90.907 11.6947 90.4263 12.4501 90.0829 13.32C89.7395 14.2051 89.564 15.1818 89.564 16.2424C89.564 17.6083 89.8921 18.791 90.4949 19.8516C91.0977 20.8894 91.9447 21.6906 93.0435 22.2934C94.127 22.8809 95.4013 23.1785 96.8282 23.1785C97.4539 23.1785 98.1025 23.0946 98.7511 22.9191C99.3997 22.7436 100.025 22.507 100.636 22.2018C101.223 21.8966 101.758 21.5532 102.215 21.1183L100.682 18.936C100.056 19.4777 99.4684 19.844 98.9266 20.0577C98.3849 20.2561 97.805 20.3629 97.1564 20.3629C96.2483 20.3629 95.4471 20.1874 94.7528 19.8211C94.0584 19.4549 93.5395 18.9589 93.1732 18.3103C92.9367 17.8754 92.807 17.3794 92.7154 16.8605H102.727L102.75 15.7159C102.772 14.7621 102.62 13.877 102.315 13.0529C102.032 12.2288 101.582 11.5192 101.017 10.9316L101.033 10.9393Z" fill="white"/>
<path d="M117.667 22.9267L112.517 16.0441L117.278 9.32163H113.531L110.83 13.7549L107.541 9.32163H103.65L108.755 16.0669L103.627 22.9267H107.328L110.464 18.3561L113.837 22.9267H117.667Z" fill="white"/>
</svg>
