<svg width="69" height="62" viewBox="0 0 69 62" fill="none" xmlns="http://www.w3.org/2000/svg">
<path d="M12.6133 38.1467L29.4385 3.06909C30.165 1.65882 31.8756 1.10905 33.2582 1.85004L36.1171 3.37983C37.4997 4.12082 38.0269 5.86574 37.3005 7.27601L22.5022 38.1467" stroke="white" stroke-width="2" stroke-linecap="round" stroke-linejoin="round"/>
<path d="M8.33359 46.1868L5.46667 51.7728L13.9538 56.0134L18.8667 46.4631" stroke="white" stroke-width="2" stroke-linecap="round" stroke-linejoin="round"/>
<path d="M36.7334 8.66662L28.6934 4.19995" stroke="white" stroke-width="2" stroke-linecap="round" stroke-linejoin="round"/>
<path d="M14.4 55.7562L5.95854 60.48L5.46667 51.5466" stroke="white" stroke-width="2" stroke-linecap="round" stroke-linejoin="round"/>
<path d="M31.3733 21.1733L34.1284 22.3883C35.098 22.8171 35.9375 23.4603 36.6115 24.2821L40.7973 29.4516C42.0507 31 43.919 31.8933 45.8937 31.8933H49.24" stroke="white" stroke-width="2" stroke-linecap="round" stroke-linejoin="round"/>
<path d="M29.1152 38.1467H9.28486C7.17577 38.1467 5.46667 39.8234 5.46667 41.8925V41.9401C5.46667 44.0924 7.3091 45.7928 9.50304 45.6739C13.3576 45.4837 18.6909 45.2458 21.5273 46.7322C27.5152 49.8715 28.6909 52.4401 36.4606 52.4401H50.1333" stroke="white" stroke-width="2" stroke-linecap="round" stroke-linejoin="round"/>
<path d="M21.5467 18.5534L18.106 18.4934C15.3629 18.4934 12.8682 20.1498 11.7804 22.7063L1.54121 41.3463C0.228791 44.0709 1.3875 47.3596 4.10692 48.6318L6.5071 49.7601" stroke="white" stroke-width="2" stroke-linecap="round" stroke-linejoin="round"/>
<path d="M63.8404 29.2134H53.3996C51.1023 29.2134 49.24 31.0836 49.24 33.3907V50.9427C49.24 53.2498 51.1023 55.12 53.3996 55.12H63.8404C66.1377 55.12 68 53.2498 68 50.9427V33.3907C68 31.0836 66.1377 29.2134 63.8404 29.2134Z" stroke="white" stroke-width="2" stroke-linecap="round" stroke-linejoin="round"/>
<path d="M49.24 41.72H58.1733" stroke="white" stroke-width="2" stroke-linecap="round" stroke-linejoin="round"/>
</svg>
