<svg width="21" height="24" viewBox="0 0 21 24" fill="none" xmlns="http://www.w3.org/2000/svg">
<g clip-path="url(#clip0_22_90)">
<path d="M10.5008 19.0586C9.76203 19.0586 9.16342 19.633 9.16342 20.3418C9.16342 21.0507 9.76203 21.6251 10.5008 21.6251C11.2395 21.6251 11.8381 21.0507 11.8381 20.3418C11.8381 19.633 11.2395 19.0586 10.5008 19.0586Z" fill="white"/>
<path d="M19.8622 0H1.13781C0.510263 0 0 0.489617 0 1.09177V22.9082C0 23.5104 0.510263 24 1.13781 24H19.5301H19.8607C20.4882 24 20.9985 23.5104 20.9985 22.9082V1.09177C20.9985 0.489617 20.4882 0 19.8607 0H19.8622ZM20.0617 22.9082C20.0617 23.0135 19.9719 23.0997 19.8622 23.0997H1.13781C1.02814 23.0997 0.938275 23.0135 0.938275 22.9082V1.09177C0.938275 0.986542 1.02814 0.900311 1.13781 0.900311H19.8607C19.9703 0.900311 20.0602 0.986542 20.0602 1.09177V22.9082H20.0617Z" fill="white"/>
<path d="M16.0025 9.69287H4.99753V10.5932H16.0025V9.69287Z" fill="white"/>
<path d="M16.0025 12.2595H4.99753V13.1598H16.0025V12.2595Z" fill="white"/>
<path d="M16.0025 14.8259H4.99753V15.7262H16.0025V14.8259Z" fill="white"/>
<path d="M10.6516 4.55859H4.99753V5.4589H10.6516V4.55859Z" fill="white"/>
<path d="M16.0025 7.12646H4.99753V8.02678H16.0025V7.12646Z" fill="white"/>
<path d="M13.3994 18.6377L12.7368 19.2735L13.8502 20.3418L12.7368 21.4102L13.247 21.8999V22.1936L14.8449 20.6605C14.9332 20.5757 14.9819 20.4632 14.9819 20.3418C14.9819 20.2205 14.9332 20.108 14.8449 20.0232L13.3994 18.6362V18.6377Z" fill="white"/>
<path d="M7.60215 18.6362L6.15666 20.0232C6.06832 20.108 6.01958 20.2205 6.01958 20.3418C6.01958 20.4632 6.06832 20.5757 6.15666 20.6605L7.75447 22.1922V21.8999L8.26474 21.4102L7.1513 20.3418L8.26474 19.2735L7.60215 18.6377V18.6362Z" fill="white"/>
</g>
<defs>
<clipPath id="clip0_22_90">
<rect width="21" height="24" fill="white"/>
</clipPath>
</defs>
</svg>
