<svg width="140" height="114" viewBox="0 0 140 114" fill="none" xmlns="http://www.w3.org/2000/svg">
<g clip-path="url(#clip0_22_76)">
<path d="M48.2245 11.1848H37.1387V22.3227H48.2245V11.1848Z" fill="white"/>
<path d="M103.824 33.5229H92.6916V44.6609H103.824V33.5229Z" fill="white"/>
<path d="M105.004 13.2282L99.4144 3.54105L92.6916 7.42529V0H48.24V11.1847H86.3103L34.9961 40.9015L40.539 50.5887L48.24 46.1273V55.7989H92.6916V44.6609H50.7863L105.004 13.2282Z" fill="white"/>
<path d="M20.417 91.0534V86.5764H0V91.849H12.9333L0 108.915V113.47H20.7741V108.197H7.60785L20.417 91.0534Z" fill="white"/>
<path d="M40.4924 106.84C39.7006 107.511 38.8156 108.041 37.8064 108.431C36.8437 108.79 35.7414 109.008 34.639 109.008C33.8472 109.008 33.1795 108.868 32.6206 108.572C32.0461 108.306 31.5648 107.948 31.2543 107.417C30.8972 106.934 30.7264 106.356 30.7264 105.686C30.7264 105.015 30.8661 104.453 31.0835 104.001C31.3474 103.564 31.7046 103.159 32.2324 102.8C32.7138 102.441 33.3348 102.176 34.0335 102.051C34.7322 101.879 35.5706 101.786 36.5022 101.786H41.5171V105.764C41.2066 106.169 40.8495 106.512 40.5079 106.824L40.4924 106.84ZM42.4332 87.0289C40.8961 86.3581 39.095 86.0149 36.9369 86.0149C34.7787 86.0149 32.6206 86.4517 30.6798 87.3408C28.739 88.23 26.9846 89.5091 25.4009 91.2251L29.2669 95.1093C30.2296 93.877 31.2853 92.9878 32.4343 92.4106C33.6298 91.8335 34.903 91.5683 36.3003 91.5683C37.8374 91.5683 39.0795 91.9738 40.0421 92.8006C41.0048 93.643 41.5016 94.7973 41.5016 96.2481V97.262H36.8437C34.8564 97.262 33.1485 97.4336 31.6114 97.7924C30.1209 98.1512 28.8788 98.7284 27.8696 99.4303C26.8604 100.132 26.1151 101.021 25.6183 102.082C25.0904 103.19 24.8264 104.422 24.8264 105.842C24.8264 107.48 25.2301 108.899 26.022 110.131C26.8604 111.333 27.9162 112.253 29.2825 112.955C30.6488 113.626 32.1859 113.969 33.9093 113.969C35.1824 113.969 36.4245 113.704 37.6511 113.173C38.8466 112.69 39.9335 111.972 40.9892 111.099C41.16 110.927 41.3463 110.74 41.5171 110.568V113.439H47.3239V94.9533C47.3239 93.0034 46.8892 91.3655 46.0508 90.0395C45.1658 88.7136 43.9858 87.6996 42.4487 86.9821L42.4332 87.0289Z" fill="white"/>
<path d="M60.3349 89.1035H54.171V113.47H60.3349V89.1035Z" fill="white"/>
<path d="M57.2141 79.7283C55.9876 79.7283 55.0094 80.0871 54.3107 80.7422C53.6121 81.413 53.255 82.2866 53.255 83.3473C53.255 84.5017 53.6121 85.422 54.3107 86.046C54.9784 86.67 55.941 86.982 57.2141 86.982C58.4873 86.982 59.4189 86.6232 60.1176 85.968C60.8162 85.2972 61.1733 84.4237 61.1733 83.3629C61.1733 82.2086 60.8162 81.335 60.1176 80.711C59.4189 80.0403 58.4407 79.7439 57.2141 79.7439V79.7283Z" fill="white"/>
<path d="M76.4511 79.7283H70.2407V86.5764H64.9617V92.3793H70.2407V113.47H76.4511V92.3793H82.3045V86.5764H76.4511V79.7283Z" fill="white"/>
<path d="M94.2287 92.4573C95.3776 91.8333 96.775 91.5214 98.4052 91.5214C99.5076 91.5214 100.47 91.7397 101.402 92.1921C102.287 92.6757 103.032 93.2997 103.607 94.0953C104.181 94.8908 104.538 95.8268 104.616 96.8407V97.1527H90.9682C91.139 96.4508 91.3253 95.8268 91.5892 95.2496C92.2103 94.0173 93.0487 93.0813 94.2287 92.4573ZM107.255 89.7586C106.153 88.5575 104.833 87.6371 103.343 86.9664C101.805 86.2956 100.175 85.9524 98.3742 85.9524C96.4334 85.9524 94.5858 86.3112 92.9245 87.0131C91.2476 87.6839 89.8037 88.6979 88.5616 89.977C87.3661 91.2094 86.4035 92.7693 85.7514 94.4852C85.0527 96.2168 84.7422 98.1511 84.7422 100.241C84.7422 102.94 85.3166 105.327 86.5432 107.355C87.7387 109.429 89.4 111.021 91.5582 112.222C93.7163 113.376 96.185 113.984 98.9952 113.984C100.268 113.984 101.51 113.813 102.83 113.454C104.103 113.095 105.345 112.658 106.479 112.034C107.674 111.457 108.73 110.755 109.6 109.866L106.557 105.576C105.33 106.637 104.181 107.386 103.125 107.791C102.069 108.197 100.92 108.415 99.6473 108.415C97.8463 108.415 96.2626 108.057 94.9429 107.355C93.5766 106.606 92.5208 105.623 91.8221 104.344C91.3408 103.455 91.0769 102.488 90.8905 101.474H110.609L110.702 99.2118C110.702 97.3087 110.438 95.546 109.817 93.9549C109.243 92.3169 108.404 90.9442 107.271 89.7586H107.255Z" fill="white"/>
<path d="M140 113.47L129.83 99.8827L139.208 86.5764H131.864L126.539 95.3276L120.064 86.5764H112.41L122.486 99.8827L112.363 113.47H119.661L125.825 104.438L132.47 113.47H140Z" fill="white"/>
</g>
<defs>
<clipPath id="clip0_22_76">
<rect width="140" height="114" fill="white"/>
</clipPath>
</defs>
</svg>
